<svg xmlns="http://www.w3.org/2000/svg" viewBox="0 0 83.93 17.76"><g id="Layer_2" data-name="Layer 2"><g id="Layer_1-2" data-name="Layer 1"><path d="M10.8,20.4H9.74V18.5a5.37,5.37,0,0,1-4.27,2.16c-2.06,0-4.17-.93-4.17-3.88C1.3,14,3.53,12.72,6,12.72a7.53,7.53,0,0,1,3.72.94V11.78c0-2.4-1.05-3.36-3.28-3.36a7.32,7.32,0,0,0-3.63,1l-.38-.87a8.74,8.74,0,0,1,4.08-1c2.73,0,4.27,1.11,4.27,4.13ZM9.74,17.45V14.52A7.2,7.2,0,0,0,6,13.58c-2.12,0-3.65,1.08-3.65,3.15,0,2.23,1.53,3.07,3.31,3.07A4.9,4.9,0,0,0,9.74,17.45Z" transform="translate(-1.3 -2.9)" fill="#231f20"/><path d="M20.59,7.87l-.26,1a4.54,4.54,0,0,0-1.95-.38c-1.63,0-3.31,1.25-3.31,4.3V20.4H14V7.8h1.05v2.28A3.67,3.67,0,0,1,18.6,7.53,4.5,4.5,0,0,1,20.59,7.87Z" transform="translate(-1.3 -2.9)" fill="#231f20"/><path d="M27.82,19.22l-.05.94a5.32,5.32,0,0,1-2.26.46c-1.39,0-2.13-.77-2.13-2.45V8.69H21.74V7.8h1.64V3.5l1.05-.6V7.8h3.34v.89H24.43V18c0,1.13.43,1.66,1.47,1.66A4.18,4.18,0,0,0,27.82,19.22Z" transform="translate(-1.3 -2.9)" fill="#231f20"/><path d="M37.73,8.06l-.65,2.36a3.68,3.68,0,0,0-1.9-.46c-1.56,0-2.47,1.1-2.47,3.24v7.2H30.24V7.8h2.47V9a3.5,3.5,0,0,1,2.88-1.47A3.69,3.69,0,0,1,37.73,8.06Z" transform="translate(-1.3 -2.9)" fill="#231f20"/><path d="M49.08,13.85c0,.45,0,.86-.07,1.13H40.68c.26,2.42,1.63,3.45,3.17,3.45a4.38,4.38,0,0,0,2.73-1L48.05,19a5.89,5.89,0,0,1-4.35,1.65c-3,0-5.44-2.37-5.44-6.55s2.25-6.58,5.52-6.58C47.35,7.53,49.08,10.44,49.08,13.85Zm-2.5-.91c-.12-1.73-.93-3.17-3-3.17-1.66,0-2.67,1.15-2.88,3.17Z" transform="translate(-1.3 -2.9)" fill="#231f20"/><path d="M60.82,20.4H58.39V19.15a4.92,4.92,0,0,1-3.45,1.51,4.06,4.06,0,0,1-4.37-4.24c0-2.81,2.16-4.08,5-4.08a6.8,6.8,0,0,1,2.81.48v-.94c0-1.37-.84-2.14-2.37-2.14a6.27,6.27,0,0,0-3.29.8l-1-1.88a7.84,7.84,0,0,1,4.32-1.13c2.81,0,4.73,1.37,4.73,4.23Zm-2.43-3.58V15a6.28,6.28,0,0,0-2.88-.55c-1.58,0-2.59.72-2.59,1.87s.79,2.09,2.42,2.09A3.92,3.92,0,0,0,58.39,16.82Z" transform="translate(-1.3 -2.9)" fill="#231f20"/><path d="M73.58,20.4H71.14V19.2a4.82,4.82,0,0,1-3.29,1.46c-2.71,0-4.85-2-4.85-6.76,0-4.32,2.35-6.37,5-6.37A4.49,4.49,0,0,1,71.14,9V4.17L73.58,2.9Zm-2.42-3.62V11.47a4,4,0,0,0-3-1.66c-1.78,0-2.74,1.35-2.74,4,0,3.17,1,4.56,2.83,4.56A3.89,3.89,0,0,0,71.16,16.78Z" transform="translate(-1.3 -2.9)" fill="#231f20"/><path d="M85.22,16.94c0,2.79-2.25,3.72-4.72,3.72a8.64,8.64,0,0,1-4.83-1.6l1.13-1.88a6.61,6.61,0,0,0,3.67,1.25c1.56,0,2.31-.5,2.31-1.39s-1.11-1.42-2.93-2.11c-2.71-1.06-3.7-2-3.7-4,0-2.26,1.78-3.44,4.3-3.44a7.49,7.49,0,0,1,4.27,1.4l-1.08,1.89a5.47,5.47,0,0,0-3.26-1.08c-1.2,0-1.73.48-1.73,1.16S79.08,12,81,12.72C83.78,13.8,85.22,14.57,85.22,16.94Z" transform="translate(-1.3 -2.9)" fill="#231f20"/></g></g></svg>