<svg xmlns="http://www.w3.org/2000/svg" viewBox="0 0 50.38 8.58"><g id="Layer_2" data-name="Layer 2"><g id="Layer_1-2" data-name="Layer 1"><path d="M2,9.86A2.43,2.43,0,0,1,1.2,8.6h0v1.63H.73V1.77h.45v4h0A2.37,2.37,0,0,1,2,4.5,2.28,2.28,0,0,1,3.47,4a2.34,2.34,0,0,1,1.33.4,2.6,2.6,0,0,1,.9,1.1A3.81,3.81,0,0,1,6,7.17H6A3.93,3.93,0,0,1,5.7,8.83a2.52,2.52,0,0,1-.9,1.1,2.25,2.25,0,0,1-1.33.4A2.32,2.32,0,0,1,2,9.86Zm2.5-.29a2.18,2.18,0,0,0,.76-1,3.56,3.56,0,0,0,.27-1.44h0A3.48,3.48,0,0,0,5.3,5.74a2.3,2.3,0,0,0-.76-1,2,2,0,0,0-1.15-.34,2,2,0,0,0-1.14.35,2.44,2.44,0,0,0-.79,1,3.41,3.41,0,0,0-.28,1.43h0a3.36,3.36,0,0,0,.28,1.42,2.34,2.34,0,0,0,.78,1,2,2,0,0,0,1.15.35A2,2,0,0,0,4.54,9.57Z" transform="translate(-0.73 -1.77)"/><path d="M7.76,9.94a2.47,2.47,0,0,1-1-1.09,3.77,3.77,0,0,1-.34-1.67h0A3.74,3.74,0,0,1,6.81,5.5a2.45,2.45,0,0,1,1-1.08A2.59,2.59,0,0,1,9.18,4a2.59,2.59,0,0,1,1.42.39,2.53,2.53,0,0,1,1,1.08,3.74,3.74,0,0,1,.34,1.67h0a3.82,3.82,0,0,1-.34,1.68,2.62,2.62,0,0,1-1,1.09,2.67,2.67,0,0,1-1.42.38A2.77,2.77,0,0,1,7.76,9.94Zm2.61-.35a2.19,2.19,0,0,0,.79-.95,3.46,3.46,0,0,0,.28-1.46h0a3.46,3.46,0,0,0-.28-1.46,2.18,2.18,0,0,0-.8-.94,2.12,2.12,0,0,0-1.18-.33A2.08,2.08,0,0,0,8,4.78a2.14,2.14,0,0,0-.78.94,3.38,3.38,0,0,0-.29,1.45h0a3.46,3.46,0,0,0,.29,1.46A2.14,2.14,0,0,0,8,9.58a2.24,2.24,0,0,0,1.19.34A2.15,2.15,0,0,0,10.37,9.59Z" transform="translate(-0.73 -1.77)"/><path d="M13.63,9.94a2.47,2.47,0,0,1-1-1.09,3.77,3.77,0,0,1-.34-1.67h0a3.74,3.74,0,0,1,.34-1.67,2.45,2.45,0,0,1,1-1.08,2.78,2.78,0,0,1,2.84,0,2.53,2.53,0,0,1,1,1.08,3.88,3.88,0,0,1,.34,1.67h0a4,4,0,0,1-.34,1.68,2.62,2.62,0,0,1-1,1.09,2.67,2.67,0,0,1-1.42.38A2.77,2.77,0,0,1,13.63,9.94Zm2.61-.35A2.19,2.19,0,0,0,17,8.64a3.46,3.46,0,0,0,.28-1.46h0A3.46,3.46,0,0,0,17,5.71a2.18,2.18,0,0,0-.8-.94,2.12,2.12,0,0,0-1.18-.33,2.08,2.08,0,0,0-1.19.34,2.14,2.14,0,0,0-.78.94,3.38,3.38,0,0,0-.29,1.45h0a3.46,3.46,0,0,0,.29,1.46,2.14,2.14,0,0,0,.78.94,2.24,2.24,0,0,0,1.19.34A2.15,2.15,0,0,0,16.24,9.59Z" transform="translate(-0.73 -1.77)"/><path d="M18.58,1.77H19v8.46h-.45Zm.31,5.48h.16l3.42-3.12h.58l-3,2.73h0l-1.16,1ZM19.81,7l.31-.3,3,3.55h-.55Z" transform="translate(-0.73 -1.77)"/><path d="M23.6,4h1.45V5.09h0a1.58,1.58,0,0,1,.51-.88,1.32,1.32,0,0,1,.91-.32,1.1,1.1,0,0,1,.26,0A.88.88,0,0,1,27,4V5.26a1.09,1.09,0,0,0-.25,0,1.79,1.79,0,0,0-.34,0,1.43,1.43,0,0,0-.71.17,1,1,0,0,0-.46.49,1.7,1.7,0,0,0-.16.78v3.61H23.6Z" transform="translate(-0.73 -1.77)"/><path d="M28.3,10a2.52,2.52,0,0,1-1-1.12,3.74,3.74,0,0,1-.36-1.7h0a3.77,3.77,0,0,1,.36-1.7,2.74,2.74,0,0,1,1-1.14,3.2,3.2,0,0,1,3.08,0,2.64,2.64,0,0,1,1,1.09A3.7,3.7,0,0,1,32.71,7v.47H27.64v-1H32l-.71.91V6.85a2.5,2.5,0,0,0-.18-1,1.43,1.43,0,0,0-.52-.61,1.53,1.53,0,0,0-1.53,0,1.34,1.34,0,0,0-.52.62,2.27,2.27,0,0,0-.19,1v.57a2.16,2.16,0,0,0,.19,1A1.31,1.31,0,0,0,29.1,9a1.59,1.59,0,0,0,.84.21,1.62,1.62,0,0,0,.64-.11A1.48,1.48,0,0,0,31,8.8a1,1,0,0,0,.25-.39v0h1.36v.06a2.33,2.33,0,0,1-.28.7,2.3,2.3,0,0,1-.55.62,2.68,2.68,0,0,1-.82.44,3.31,3.31,0,0,1-1.08.16A3.17,3.17,0,0,1,28.3,10Z" transform="translate(-0.73 -1.77)"/><path d="M34.09,10.1a1.75,1.75,0,0,1-.73-.67,1.83,1.83,0,0,1-.26-1h0a1.58,1.58,0,0,1,.62-1.31,3,3,0,0,1,1.74-.55l2.37-.15v1l-2.16.13a1.54,1.54,0,0,0-.83.26.72.72,0,0,0-.29.59h0a.73.73,0,0,0,.29.6,1.23,1.23,0,0,0,.77.22,1.7,1.7,0,0,0,.76-.17,1.37,1.37,0,0,0,.52-.46,1.19,1.19,0,0,0,.19-.67V6.06a1,1,0,0,0-.29-.74,1.22,1.22,0,0,0-.85-.27,1.38,1.38,0,0,0-.83.22.88.88,0,0,0-.39.56v.06H33.36V5.82a1.85,1.85,0,0,1,.37-1,2.16,2.16,0,0,1,.89-.69A3.3,3.3,0,0,1,36,3.89a3.13,3.13,0,0,1,1.35.26,2,2,0,0,1,.88.72A1.87,1.87,0,0,1,38.54,6v4.27H37.08v-1h0a1.92,1.92,0,0,1-.46.56,1.79,1.79,0,0,1-.64.37,2.19,2.19,0,0,1-.77.13A2.53,2.53,0,0,1,34.09,10.1Z" transform="translate(-0.73 -1.77)"/><path d="M40.36,10a2.52,2.52,0,0,1-.89-1.12,4.26,4.26,0,0,1-.31-1.72h0a4.31,4.31,0,0,1,.31-1.73,2.54,2.54,0,0,1,.89-1.11,2.39,2.39,0,0,1,1.36-.39,2.08,2.08,0,0,1,1.94,1.19h0V1.77h1.46v8.46H43.69V9.17h0a2.08,2.08,0,0,1-.76.87,2.19,2.19,0,0,1-1.18.31A2.39,2.39,0,0,1,40.36,10ZM43,8.88a1.61,1.61,0,0,0,.54-.7,2.64,2.64,0,0,0,.19-1.06h0a2.64,2.64,0,0,0-.19-1.06,1.75,1.75,0,0,0-.54-.7,1.47,1.47,0,0,0-1.61,0,1.56,1.56,0,0,0-.53.69,2.85,2.85,0,0,0-.18,1.07h0a2.89,2.89,0,0,0,.18,1.07,1.56,1.56,0,0,0,.53.69,1.42,1.42,0,0,0,1.61,0Z" transform="translate(-0.73 -1.77)"/><path d="M47.11,10.11a2.05,2.05,0,0,1-1.3-1.69V8.37h1.43v.05a1,1,0,0,0,.39.63,1.47,1.47,0,0,0,.87.22,1.82,1.82,0,0,0,.61-.09.88.88,0,0,0,.39-.25.64.64,0,0,0,.13-.4h0a.61.61,0,0,0-.18-.45,1.57,1.57,0,0,0-.68-.28l-1-.23a2.75,2.75,0,0,1-1.34-.63A1.51,1.51,0,0,1,46,5.8h0a1.67,1.67,0,0,1,.31-1,2,2,0,0,1,.88-.67,3.28,3.28,0,0,1,1.3-.24,3,3,0,0,1,1.33.26,2,2,0,0,1,.85.69,1.85,1.85,0,0,1,.33,1v.06H49.6v0a.94.94,0,0,0-.34-.62A1.26,1.26,0,0,0,48.45,5a1.6,1.6,0,0,0-.56.09.88.88,0,0,0-.36.26.7.7,0,0,0-.12.4h0a.55.55,0,0,0,.2.44,1.61,1.61,0,0,0,.68.3l1,.22a2.91,2.91,0,0,1,1.38.62,1.46,1.46,0,0,1,.41,1.08h0a1.62,1.62,0,0,1-.34,1,2.1,2.1,0,0,1-.92.69,3.54,3.54,0,0,1-1.35.24A3.6,3.6,0,0,1,47.11,10.11Z" transform="translate(-0.73 -1.77)"/></g></g></svg>