<?xml version="1.0" encoding="utf-8"?>
<!-- Generator: Adobe Illustrator 25.0.1, SVG Export Plug-In . SVG Version: 6.00 Build 0)  -->
<svg version="1.1" id="Layer_1" xmlns="http://www.w3.org/2000/svg" xmlns:xlink="http://www.w3.org/1999/xlink" x="0px" y="0px"
	 viewBox="0 0 256 256" style="enable-background:new 0 0 256 256;" xml:space="preserve">
<style type="text/css">
	.st0{fill:#231F20;}
</style>
<g>
	<path class="st0" d="M93.1,119.2h-1.1v-1.9c-1,1.2-2.4,2.2-4.3,2.2c-2.1,0-4.2-0.9-4.2-3.9c0-2.8,2.2-4.1,4.7-4.1
		c1.5,0,2.8,0.4,3.7,0.9v-1.9c0-2.4-1.1-3.4-3.3-3.4c-1.4,0-2.5,0.4-3.6,1l-0.4-0.9c1.1-0.6,2.4-1,4.1-1c2.7,0,4.3,1.1,4.3,4.1
		V119.2z M92.1,116.3v-2.9c-1-0.6-2.1-0.9-3.8-0.9c-2.1,0-3.6,1.1-3.6,3.1c0,2.2,1.5,3.1,3.3,3.1C89.8,118.6,91.2,117.6,92.1,116.3z
		"/>
	<path class="st0" d="M102.9,106.7l-0.3,1c-0.6-0.2-1.1-0.4-1.9-0.4c-1.6,0-3.3,1.2-3.3,4.3v7.6h-1.1v-12.6h1.1v2.3
		c0.5-1.6,2-2.5,3.5-2.5C101.9,106.3,102.5,106.5,102.9,106.7z"/>
	<path class="st0" d="M110.2,118l0,0.9c-0.6,0.3-1.3,0.5-2.3,0.5c-1.4,0-2.1-0.8-2.1-2.4v-9.5h-1.6v-0.9h1.6v-4.3l1.1-0.6v4.9h3.3
		v0.9h-3.3v9.3c0,1.1,0.4,1.7,1.5,1.7C109,118.5,109.6,118.3,110.2,118z"/>
	<path class="st0" d="M120.1,106.9l-0.6,2.4c-0.5-0.3-1.1-0.5-1.9-0.5c-1.6,0-2.5,1.1-2.5,3.2v7.2h-2.5v-12.6h2.5v1.2
		c0.6-0.8,1.6-1.5,2.9-1.5C118.9,106.3,119.6,106.5,120.1,106.9z"/>
	<path class="st0" d="M131.4,112.7c0,0.5,0,0.9-0.1,1.1H123c0.3,2.4,1.6,3.5,3.2,3.5c1.1,0,1.9-0.4,2.7-1l1.5,1.6
		c-1.1,1.1-2.4,1.7-4.3,1.7c-3,0-5.4-2.4-5.4-6.6c0-4.3,2.3-6.6,5.5-6.6C129.7,106.3,131.4,109.2,131.4,112.7z M128.9,111.7
		c-0.1-1.7-0.9-3.2-3-3.2c-1.7,0-2.7,1.2-2.9,3.2H128.9z"/>
	<path class="st0" d="M143.2,119.2h-2.4V118c-0.9,0.9-2.1,1.5-3.5,1.5c-2,0-4.4-1.2-4.4-4.2c0-2.8,2.2-4.1,5-4.1
		c1.2,0,2.1,0.2,2.8,0.5v-0.9c0-1.4-0.8-2.1-2.4-2.1c-1.3,0-2.3,0.2-3.3,0.8l-1-1.9c1.2-0.7,2.5-1.1,4.3-1.1c2.8,0,4.7,1.4,4.7,4.2
		V119.2z M140.7,115.6v-1.8c-0.7-0.3-1.5-0.6-2.9-0.6c-1.6,0-2.6,0.7-2.6,1.9c0,1.2,0.8,2.1,2.4,2.1
		C139,117.2,140.2,116.4,140.7,115.6z"/>
	<path class="st0" d="M155.9,119.2h-2.4V118c-0.9,0.8-2,1.5-3.3,1.5c-2.7,0-4.8-2-4.8-6.8c0-4.3,2.4-6.4,5-6.4
		c1.3,0,2.5,0.7,3.2,1.4V103l2.4-1.3V119.2z M153.5,115.6v-5.3c-0.6-0.7-1.7-1.7-3-1.7c-1.8,0-2.7,1.3-2.7,4c0,3.2,1,4.6,2.8,4.6
		C151.8,117.2,152.9,116.4,153.5,115.6z"/>
	<path class="st0" d="M167.6,115.8c0,2.8-2.3,3.7-4.7,3.7c-1.7,0-3.6-0.7-4.8-1.6l1.1-1.9c1.2,0.8,2.5,1.2,3.7,1.2
		c1.6,0,2.3-0.5,2.3-1.4c0-1-1.1-1.4-2.9-2.1c-2.7-1.1-3.7-2-3.7-4c0-2.3,1.8-3.4,4.3-3.4c1.6,0,3.1,0.6,4.3,1.4l-1.1,1.9
		c-1-0.7-2.1-1.1-3.3-1.1s-1.7,0.5-1.7,1.2c0,0.6,0.4,1.1,2.3,1.8C166.1,112.6,167.6,113.4,167.6,115.8z"/>
</g>
<g>
</g>
<g>
</g>
<g>
</g>
<g>
</g>
<g>
</g>
<g>
</g>
<g>
</g>
<g>
</g>
<g>
</g>
<g>
</g>
<g>
</g>
<g>
</g>
<g>
</g>
<g>
</g>
<g>
</g>
</svg>
